<mxfile host="app.diagrams.net" modified="2023-11-30T20:46:43.210Z" agent="Mozilla/5.0 (Windows NT 10.0; Win64; x64) AppleWebKit/537.36 (KHTML, like Gecko) Chrome/119.0.0.0 Safari/537.36" version="22.1.5" etag="89j7QrYLOowW3Q8qvxoM" type="github">
  <diagram name="Page-1" id="9F78Qk4Eoqme6ek3tkta">
    <mxGraphModel>
      <root>
        <mxCell id="0" />
        <mxCell id="1" parent="0" />
      </root>
    </mxGraphModel>
  </diagram>
</mxfile>
